name D:\school\WTK\thesis\model\3dpredictsim\Results\MidTarsalJoint\Fal_s1_bCst_PF_Natali2010_ls150_MT_nl_signed_lin_MTP_T5_ig24_500_50.mot
datacolumns 128
datarows 4
range 1.68635526 1.72008236
endheader
time	pelvis_tilt	pelvis_list	pelvis_rotation	pelvis_tx	pelvis_ty	pelvis_tz	hip_flexion_l	hip_adduction_l	hip_rotation_l	hip_flexion_r	hip_adduction_r	hip_rotation_r	knee_angle_l	knee_angle_r	ankle_angle_l	ankle_angle_r	subtalar_angle_l	subtalar_angle_r	mtj_angle_l	mtj_angle_r	mtp_angle_l	mtp_angle_r	lumbar_extension	lumbar_bending	lumbar_rotation	arm_flex_l	arm_add_l	arm_rot_l	arm_flex_r	arm_add_r	arm_rot_r	elbow_flex_l	elbow_flex_r	pro_sup_l	pro_sup_r	glut_med1_l/activation	glut_med2_l/activation	glut_med3_l/activation	glut_min1_l/activation	glut_min2_l/activation	glut_min3_l/activation	semimem_l/activation	semiten_l/activation	bifemlh_l/activation	bifemsh_l/activation	sar_l/activation	add_long_l/activation	add_brev_l/activation	add_mag1_l/activation	add_mag2_l/activation	add_mag3_l/activation	tfl_l/activation	pect_l/activation	grac_l/activation	glut_max1_l/activation	glut_max2_l/activation	glut_max3_l/activation	iliacus_l/activation	psoas_l/activation	quad_fem_l/activation	gem_l/activation	peri_l/activation	rect_fem_l/activation	vas_med_l/activation	vas_int_l/activation	vas_lat_l/activation	med_gas_l/activation	lat_gas_l/activation	soleus_l/activation	tib_post_l/activation	flex_dig_l/activation	flex_hal_l/activation	tib_ant_l/activation	per_brev_l/activation	per_long_l/activation	per_tert_l/activation	ext_dig_l/activation	ext_hal_l/activation	ercspn_l/activation	intobl_l/activation	extobl_l/activation	glut_med1_r/activation	glut_med2_r/activation	glut_med3_r/activation	glut_min1_r/activation	glut_min2_r/activation	glut_min3_r/activation	semimem_r/activation	semiten_r/activation	bifemlh_r/activation	bifemsh_r/activation	sar_r/activation	add_long_r/activation	add_brev_r/activation	add_mag1_r/activation	add_mag2_r/activation	add_mag3_r/activation	tfl_r/activation	pect_r/activation	grac_r/activation	glut_max1_r/activation	glut_max2_r/activation	glut_max3_r/activation	iliacus_r/activation	psoas_r/activation	quad_fem_r/activation	gem_r/activation	peri_r/activation	rect_fem_r/activation	vas_med_r/activation	vas_int_r/activation	vas_lat_r/activation	med_gas_r/activation	lat_gas_r/activation	soleus_r/activation	tib_post_r/activation	flex_dig_r/activation	flex_hal_r/activation	tib_ant_r/activation	per_brev_r/activation	per_long_r/activation	per_tert_r/activation	ext_dig_r/activation	ext_hal_r/activation	ercspn_r/activation	intobl_r/activation	extobl_r/activation	
          1.68635526	         -2.93017638	          1.95645593	         -5.08387556	          2.10794407	          0.91936937	          0.00242017	         29.50176618	          3.21637693	         -2.34741129	        -16.79800995	         -0.62674440	          6.60759157	        -11.16905128	         -6.93228764	          5.91163177	         -0.53567641	         -4.34929357	          7.85937442	         -0.53859860	          3.14167919	          1.85469959	         15.49470540	         -2.15939723	         -0.20569558	          1.87848541	         -4.48635214	        -13.45463543	          7.52639584	          5.31711095	        -13.45288648	         16.68465977	         16.22053546	         32.69607018	         86.51662706	         86.51662706	          0.05000144	          0.05000081	          0.05936623	          0.05000035	          0.05000061	          0.05000224	          0.19922921	          0.05937193	          0.06678863	          0.05000307	          0.05000189	          0.13294770	          0.19701580	          0.18322273	          0.15859302	          0.09202911	          0.05936808	          0.05002823	          0.13426072	          0.05936787	          0.05936928	          0.09754370	          0.05000051	          0.05000073	          0.25139858	          0.05001449	          0.05000148	          0.05000054	          0.08674838	          0.08806960	          0.07460056	          0.05936871	          0.05936878	          0.05936864	          0.05000062	          0.05000106	          0.05000283	          0.47648088	          0.28398908	          0.18217312	          0.07577003	          0.46950914	          0.05000065	          0.05936884	          0.12839830	          0.10716275	          0.34692955	          0.10787619	          0.08091802	          0.33492033	          0.20660393	          0.11800364	          0.05000195	          0.05000047	          0.05000031	          0.06268209	          0.10900619	          0.05000033	          0.05000026	          0.05000034	          0.05000094	          0.05000055	          0.32811069	          0.05000159	          0.05000097	          0.05000744	          0.05000344	          0.05000138	          0.39728436	          0.63348586	          0.05000030	          0.05000102	          0.05972619	          0.19447343	          0.05000051	          0.05000059	          0.05000046	          0.30212990	          0.40578069	          0.34604937	          0.28670341	          0.29359246	          0.38029255	          0.05000012	          0.05936957	          0.11855732	          0.05000071	          0.05000018	          0.05000062	          0.05000003	          0.05000003	          0.05000006	
          1.69759763	         -2.92827573	          2.05416020	         -5.35005466	          2.12471347	          0.91851400	          0.00219934	         28.93016542	          3.61708157	         -2.15725657	        -16.66978336	         -0.92570099	          6.39674102	        -11.27453470	         -8.85147823	          5.25395845	         -1.07408019	         -4.73831481	          8.84470050	         -0.65097637	          2.57697176	          1.76430915	         17.01447763	         -1.97514095	         -0.41828869	          1.94816005	         -5.35887157	        -13.45024204	          7.19752939	          5.07427088	        -13.46405714	         17.05710031	         15.90254282	         33.83390528	         86.51662706	         86.51662706	          0.05000026	          0.05000049	          0.05000029	          0.05000776	          0.05000183	          0.05000053	          0.16779005	          0.05000288	          0.05624914	          0.05000112	          0.05013554	          0.11801611	          0.26503703	          0.28095156	          0.17287333	          0.07750730	          0.05000045	          0.07053264	          0.11307554	          0.05000077	          0.05000083	          0.11649427	          0.07049255	          0.07049226	          0.57210316	          0.19826339	          0.16618116	          0.08370120	          0.20837704	          0.20862521	          0.17796876	          0.05000008	          0.05000017	          0.05000002	          0.05000132	          0.05000451	          0.05000316	          0.55782974	          0.23917467	          0.18737652	          0.24542869	          0.49653232	          0.06671804	          0.05000019	          0.10813648	          0.09025200	          0.29218270	          0.09085290	          0.06814890	          0.28206864	          0.17400103	          0.09938225	          0.05000582	          0.05000131	          0.05000172	          0.05279073	          0.09180482	          0.10190733	          0.10530913	          0.06886507	          0.05002330	          0.05005890	          0.27633364	          0.07364991	          0.05001420	          0.05000737	          0.05000528	          0.05000522	          0.33459119	          0.53351936	          0.05000296	          0.05014593	          0.05936860	          0.16378487	          0.09370189	          0.05001429	          0.15571062	          0.25445246	          0.34174677	          0.31170867	          0.25859214	          0.24726454	          0.32140438	          0.05000011	          0.05000141	          0.11126382	          0.05000041	          0.05000012	          0.05000056	          0.05000020	          0.07271782	          0.05067630	
          1.70883999	         -2.92218313	          2.15552986	         -5.58835643	          2.14182051	          0.91769943	          0.00199957	         28.21765332	          3.93642688	         -1.90136063	        -16.47277453	         -1.22633354	          6.17714771	        -11.70825484	        -10.88371584	          4.70899518	         -1.77165939	         -5.13615925	          9.80091362	         -0.87057038	          1.91033317	          1.73390684	         18.58305537	         -1.76766849	         -0.64440417	          2.00679057	         -6.26543820	        -13.45316090	          6.91759506	          4.74370802	        -13.47280950	         17.34426510	         15.63282390	         34.96936923	         86.51662706	         86.51662706	          0.24313943	          0.05000033	          0.13476914	          0.05000022	          0.05000031	          0.18533397	          0.15704704	          0.05000127	          0.07193979	          0.05000020	          0.05000108	          0.09939277	          0.22321323	          0.23661646	          0.14559379	          0.09530323	          0.05000178	          0.05940399	          0.09523427	          0.05000170	          0.05002130	          0.09811120	          0.05936877	          0.05936862	          0.48182276	          0.16697665	          0.13995801	          0.07049279	          0.17549430	          0.17570331	          0.14988457	          0.05708440	          0.05898717	          0.05727255	          0.05000053	          0.05000131	          0.05000140	          0.49627369	          0.30246505	          0.16283508	          0.20669908	          0.55912449	          0.05618966	          0.05000003	          0.11685969	          0.07600984	          0.36530099	          0.07651596	          0.05739481	          0.23755740	          0.14654302	          0.08369938	          0.05000524	          0.05000153	          0.05000119	          0.05000031	          0.07731792	          0.12871925	          0.13250878	          0.05937038	          0.05936849	          0.05936879	          0.23272821	          0.07049007	          0.05001078	          0.05001315	          0.05001627	          0.05936156	          0.28179134	          0.51169651	          0.05000657	          0.05000207	          0.05000032	          0.13793896	          0.07891625	          0.11777175	          0.13113946	          0.21429872	          0.28781762	          0.26251965	          0.21778529	          0.20824549	          0.27068573	          0.05000003	          0.05000075	          0.14881344	          0.05000019	          0.05000008	          0.05000023	          0.05377198	          0.06124264	          0.05936870	
          1.72008236	         -2.91342254	          2.25710680	         -5.79194098	          2.15910185	          0.91693983	          0.00179429	         27.37644978	          4.19486575	         -1.63905756	        -16.18744258	         -1.52255629	          5.95991116	        -12.07313897	        -13.04111330	          4.11763025	         -2.65768762	         -5.53179200	         10.70934734	         -0.89674957	          1.19381488	          1.79293643	         20.11066360	         -1.55407100	         -0.87834462	          2.05644290	         -7.16534774	        -13.46078186	          6.70018637	          4.34762628	        -13.48362443	         17.55286405	         15.38736193	         36.09392189	         86.51662706	         86.51662706	          0.30648475	          0.26559340	          0.30533321	          0.19428415	          0.21499207	          0.16527246	          0.13226436	          0.07413708	          0.06058750	          0.08370057	          0.05001052	          0.08370821	          0.18798925	          0.19927763	          0.12261904	          0.12416361	          0.05000099	          0.05003044	          0.08021091	          0.19406759	          0.14534125	          0.11099464	          0.05000029	          0.05000028	          0.40578906	          0.14062722	          0.15335569	          0.05936876	          0.14780101	          0.14797753	          0.12623254	          0.05000066	          0.05000114	          0.05000009	          0.05000011	          0.05000045	          0.05000057	          0.58834643	          0.34388336	          0.18228917	          0.51014679	          0.53153332	          0.22942293	          0.07814227	          0.09841966	          0.06401517	          0.31524795	          0.06444147	          0.05000015	          0.35754742	          0.12341803	          0.07049137	          0.05000502	          0.05000039	          0.05000032	          0.05000065	          0.06511744	          0.11448274	          0.11159865	          0.05000201	          0.05000208	          0.05000144	          0.24969809	          0.05937181	          0.05000139	          0.05000234	          0.05000129	          0.05000079	          0.23732351	          0.46702524	          0.05000018	          0.05000122	          0.05000105	          0.11800703	          0.06646351	          0.11591547	          0.11800551	          0.18048142	          0.24239872	          0.22109286	          0.18341785	          0.17538362	          0.22797047	          0.05828850	          0.10659849	          0.13920228	          0.05000114	          0.09518283	          0.05000123	          0.07047945	          0.05157828	          0.05000012	
